<svg xmlns="http://www.w3.org/2000/svg" version="1.1" viewBox="0 0 500 500">
<path d="M0 0 C165 0 330 0 500 0 C500 165 500 330 500 500 C335 500 170 500 0 500 C0 335 0 170 0 0 Z " fill="#000000" transform="translate(0,0)"/>
<path d="M0 0 C17.75565736 14.94224353 29.59839082 35.54326555 32.25341797 58.72558594 C33.94697013 84.61609485 27.05698415 108.24147361 9.81591797 127.97558594 C8.31141221 129.57444206 6.79111485 131.15862493 5.25341797 132.72558594 C4.59083984 133.41265625 3.92826172 134.09972656 3.24560547 134.80761719 C-13.86284988 151.29808651 -37.34668033 157.1142073 -60.45727539 157.09863281 C-68.74349389 156.93473114 -75.91323213 155.54891346 -83.74658203 152.72558594 C-84.78943359 152.35175781 -85.83228516 151.97792969 -86.90673828 151.59277344 C-99.85893544 146.54559467 -110.00498987 139.45297753 -119.74658203 129.72558594 C-120.73271484 128.75685547 -120.73271484 128.75685547 -121.73876953 127.76855469 C-132.19269158 116.71244819 -137.68743952 103.12578962 -141.74658203 88.72558594 C-142.01341797 87.84773438 -142.28025391 86.96988281 -142.55517578 86.06542969 C-147.66562707 66.08180294 -142.66893404 43.61722505 -133.18798828 25.79589844 C-120.12371191 4.17875048 -101.0564541 -10.60676867 -76.55908203 -17.08691406 C-49.22384846 -22.40124997 -21.92359893 -17.37696014 0 0 Z " fill="#FDFDFD" transform="translate(305.74658203125,167.2744140625)"/>
<path d="M0 0 C17.75565736 14.94224353 29.59839082 35.54326555 32.25341797 58.72558594 C33.94697013 84.61609485 27.05698415 108.24147361 9.81591797 127.97558594 C8.31141221 129.57444206 6.79111485 131.15862493 5.25341797 132.72558594 C4.59083984 133.41265625 3.92826172 134.09972656 3.24560547 134.80761719 C-13.86284988 151.29808651 -37.34668033 157.1142073 -60.45727539 157.09863281 C-68.74349389 156.93473114 -75.91323213 155.54891346 -83.74658203 152.72558594 C-84.78943359 152.35175781 -85.83228516 151.97792969 -86.90673828 151.59277344 C-99.85893544 146.54559467 -110.00498987 139.45297753 -119.74658203 129.72558594 C-120.73271484 128.75685547 -120.73271484 128.75685547 -121.73876953 127.76855469 C-132.19269158 116.71244819 -137.68743952 103.12578962 -141.74658203 88.72558594 C-142.01341797 87.84773438 -142.28025391 86.96988281 -142.55517578 86.06542969 C-147.66562707 66.08180294 -142.66893404 43.61722505 -133.18798828 25.79589844 C-120.12371191 4.17875048 -101.0564541 -10.60676867 -76.55908203 -17.08691406 C-49.22384846 -22.40124997 -21.92359893 -17.37696014 0 0 Z M-116.46142578 18.87402344 C-131.24232285 37.31856166 -135.26585707 57.90266402 -133.50048828 80.93652344 C-131.23047647 98.39455241 -121.88620565 113.37373114 -109.74658203 125.72558594 C-109.13298828 126.35207031 -108.51939453 126.97855469 -107.88720703 127.62402344 C-98.59124548 136.40354268 -87.0504932 141.72027753 -74.74658203 144.72558594 C-74.06942139 144.9007373 -73.39226074 145.07588867 -72.69458008 145.25634766 C-53.11682864 150.04662581 -31.64629868 146.07535613 -14.46923828 135.75683594 C3.61813861 124.04501541 15.38694111 107.45178669 21.06201172 86.78027344 C25.19688601 66.30551659 21.97434697 45.58624566 11.25341797 27.72558594 C9.10772811 24.53430587 6.77033706 21.62931575 4.25341797 18.72558594 C3.28855469 17.51128906 3.28855469 17.51128906 2.30419922 16.27246094 C-9.86179918 1.61029651 -29.27842145 -7.69253817 -48.16113281 -9.50634766 C-74.5856465 -11.14527758 -98.9598334 -1.2625155 -116.46142578 18.87402344 Z " fill="#F4F4F4" transform="translate(305.74658203125,167.2744140625)"/>
<path d="M0 0 C6.0648333 -0.07471366 12.12939276 -0.12886656 18.19458008 -0.16479492 C20.25354689 -0.17978857 22.31248227 -0.20019033 24.37133789 -0.22631836 C46.36741386 -0.49826984 46.36741386 -0.49826984 55 3 C55.8962207 3.35731201 56.79244141 3.71462402 57.71582031 4.08276367 C65.6522012 7.42930753 70.60786327 13.03802354 75 20.3125 C77.73380202 30.39339496 76.39669852 41.0033717 71.4375 50.125 C64.83889509 60.38949653 55.22024842 64.24673957 43.78515625 67.09765625 C38.80723963 68.17681044 34.01033013 68.22650151 28.9375 68.125 C27.34319054 68.10198373 25.74886987 68.07973613 24.15454102 68.05810547 C22.07727051 68.02905273 22.07727051 68.02905273 20 68 C20.01943826 73.17858154 20.07120795 78.35546796 20.15258789 83.53344727 C20.17574364 85.29376991 20.19015794 87.05423061 20.19555664 88.81469727 C20.20486442 91.34999379 20.24589048 93.88312628 20.29296875 96.41796875 C20.2890361 97.20149216 20.28510345 97.98501556 20.28105164 98.7922821 C20.39526762 103.09732594 20.59147096 104.53251043 23.54418945 107.91137695 C24.35460693 108.60062256 25.16502441 109.28986816 26 110 C26 110.66 26 111.32 26 112 C17.42 112 8.84 112 0 112 C1.02551279 108.92346162 1.80796996 108.19203004 4 106 C5.33161714 102.00514859 5.14743028 98.16749206 5.14526367 94.00219727 C5.14862228 93.08159515 5.1519809 92.16099304 5.15544128 91.2124939 C5.16495438 88.16378436 5.16689452 85.11512971 5.16796875 82.06640625 C5.17118087 79.95035275 5.17454491 77.83429948 5.17805481 75.71824646 C5.18404683 71.28050217 5.18589461 66.84277735 5.18530273 62.4050293 C5.18520106 56.71412638 5.19885842 51.02334808 5.21607494 45.33247471 C5.22718397 40.96163863 5.22922229 36.5908328 5.22869301 32.21998405 C5.22987458 30.12159737 5.23430627 28.02320993 5.24202538 25.92483711 C5.25180386 22.99220121 5.24895574 20.05983739 5.24291992 17.12719727 C5.25134918 15.82335838 5.25134918 15.82335838 5.25994873 14.49317932 C5.25575424 13.69267151 5.25155975 12.8921637 5.24723816 12.06739807 C5.24805531 11.02792951 5.24805531 11.02792951 5.24888897 9.96746159 C4.94718253 7.58247909 4.27493456 6.0350127 3 4 C2.01 3.34 1.02 2.68 0 2 C0 1.34 0 0.68 0 0 Z " fill="#050505" transform="translate(214,182)"/>
<path d="M0 0 C13.37436025 0 23.89882999 0.3082635 34.12890625 9.07421875 C41.75627816 16.92452011 43.46775344 25.44962501 43.3203125 36.16015625 C42.71015105 43.47465268 40.45213214 50.85076409 35 56 C23.88071391 64.29688524 14.68354009 63 0 63 C0 42.21 0 21.42 0 0 Z " fill="#F9F9F9" transform="translate(233,184)"/>
<path d="M0 0 C15.64507561 13.25853865 26.17429317 32.59549601 28.5625 53 C29.75263865 76.29308893 24.98935324 97.84273026 9.5625 116 C8.78132813 116.99773437 8.78132813 116.99773437 7.984375 118.015625 C-3.93182127 132.7084107 -23.67780347 142.97448282 -42.4375 145 C-66.52106251 146.32077806 -87.85567202 142.25909948 -106.4375 126 C-107.0975 125.48179687 -107.7575 124.96359375 -108.4375 124.4296875 C-122.9722954 112.67694278 -133.28913284 92.72441674 -135.27856445 74.10693359 C-137.13267051 49.52792391 -131.53339443 28.03987512 -115.4375 9 C-114.82777344 8.18917969 -114.21804687 7.37835938 -113.58984375 6.54296875 C-84.66749639 -27.62844346 -33.22639476 -25.41395633 0 0 Z M-114.15234375 13.1484375 C-128.93324082 31.59297572 -132.95677504 52.17707808 -131.19140625 75.2109375 C-128.92139444 92.66896648 -119.57712362 107.6481452 -107.4375 120 C-106.82390625 120.62648438 -106.2103125 121.25296875 -105.578125 121.8984375 C-96.28216345 130.67795674 -84.74141116 135.99469159 -72.4375 139 C-71.76033936 139.17515137 -71.08317871 139.35030273 -70.38549805 139.53076172 C-50.80774661 144.32103987 -29.33721665 140.34977019 -12.16015625 130.03125 C5.92722064 118.31942947 17.69602314 101.72620075 23.37109375 81.0546875 C27.50596804 60.57993065 24.283429 39.86065972 13.5625 22 C11.41681014 18.80871993 9.07941909 15.90372981 6.5625 13 C5.59763672 11.78570312 5.59763672 11.78570312 4.61328125 10.546875 C-7.55271714 -4.11528942 -26.96933942 -13.41812411 -45.85205078 -15.23193359 C-72.27656447 -16.87086352 -96.65075137 -6.98810144 -114.15234375 13.1484375 Z " fill="#0F0F0F" transform="translate(303.4375,173)"/>
<path d="M0 0 C11.45497684 -0.59822896 22.33151796 1.53300208 32 8 C37.72967088 13.18398794 42.55823051 18.83636646 43.23828125 26.78515625 C43.49882784 37.63212202 41.73108029 46.27559551 35 55 C26.30736123 63.86175626 13.23240386 68.01675056 0.96484375 68.1953125 C-0.71106412 68.18413618 -2.38689024 68.15852703 -4.0625 68.125 C-7.011875 68.08375 -9.96125 68.0425 -13 68 C-13 78.56 -13 89.12 -13 100 C-13.33 100 -13.66 100 -14 100 C-14 89.11 -14 78.22 -14 67 C-6.08 66.505 -6.08 66.505 2 66 C4.31 65.01 6.62 64.02 9 63 C10.37115726 62.53029561 11.74545205 62.06945687 13.125 61.625 C19.28674741 59.3292138 22.77106648 54.56712676 26 49 C29.27550773 39.26739819 29.6697686 28.47843832 25.1875 19.078125 C20.47915185 10.83851574 13.84917728 7.094572 5 4.375 C4.2575 4.17648438 3.515 3.97796875 2.75 3.7734375 C2.1725 3.51820313 1.595 3.26296875 1 3 C0.67 2.01 0.34 1.02 0 0 Z " fill="#0D0D0D" transform="translate(247,182)"/>
</svg>